# xmcd
#
# Track frame offsets:
#	150
#	21057
#	36918
#	49574
#	69695
#	85244
#	102639
#	123290
#	139559
#	150359
#	170130
#	186345
#	199607
#	212778
#	220242
#	232688
#	245624
#	261073
#	277557
#	292715
#	306387
#
# Disc length: 4298 seconds
#
# Revision: 0
# Processed by: cddbd v1.5.2PL0 Copyright (c) Steve Scherf et al.
# Submitted via: EZCDAudioConverter 7.1.0.1
#
DISCID=2510c815
DTITLE=Nu Urban Traxx Volume 248 US
DYEAR=2018
DGENRE=blues
TTITLE0=Migos ft. Drake - Walk It Talk It
TTITLE1=Cardi B - Be Careful
TTITLE2=XXXTENTACION - Sad!
TTITLE3=Rae Sremmurd - Powerglide
TTITLE4=Post Malone ft. Ty Dolla $ign - Psycho
TTITLE5=Lil Jon ft. Offset and 2 Chainz - Alive
TTITLE6=Miguel ft. J. Cole and Salaam Remi - Come Through And Chill
TTITLE7=Lil Dicky ft. Chris Brown - Freaky Friday
TTITLE8=Famous Dex - Japan
TTITLE9=Cardi B ft. Migos - Drip
TTITLE10=HoodCelebrityy - Walking Trophy
TTITLE11=Rich The Kid - Plug Walk
TTITLE12=Plies - Rock
TTITLE13=YBN Nahmir - Bounce Out With That
TTITLE14=Tory Lanez - B.I.D. (Bust It Down)
TTITLE15=Rich Brian ft. Offset - Attention
TTITLE16=Derez De'Shon - Hardaway
TTITLE17=Ty Dolla $ign ft. Gucci Mane and Quavo - Pineapple
TTITLE18=Khalid and Normani - Love Lies
TTITLE19=Moneybagg Yo - Bigg Facts
TTITLE20=King Combs ft. Chris Brown - Love You Better
EXTD=
EXTT0=
EXTT1=
EXTT2=
EXTT3=
EXTT4=
EXTT5=
EXTT6=
EXTT7=
EXTT8=
EXTT9=
EXTT10=
EXTT11=
EXTT12=
EXTT13=
EXTT14=
EXTT15=
EXTT16=
EXTT17=
EXTT18=
EXTT19=
EXTT20=
PLAYORDER=
